<svg xmlns="http://www.w3.org/2000/svg" xmlns:xlink="http://www.w3.org/1999/xlink" viewBox="0 0 120.01 18.55"><defs><style>.cls-1{fill:none;}.cls-2{clip-path:url(#clip-path);}</style><clipPath id="clip-path"><rect class="cls-1" x="24.86" y="2.39" width="95.15" height="13.78"/></clipPath></defs><g id="图层_2" data-name="图层 2"><g id="图层_1-2" data-name="图层 1"><path d="M18,12.6h0A9.29,9.29,0,0,0,9.3,0h0A9.19,9.19,0,0,0,5.92.63h0a1.93,1.93,0,0,1-.63.1A2.15,2.15,0,0,1,4.14.36h0A2.69,2.69,0,0,0,2.78,0,2.78,2.78,0,0,0,.37,4.17h0A1.9,1.9,0,0,1,.73,5.3,2.06,2.06,0,0,1,.62,6h0a9.27,9.27,0,0,0,8.65,12.6h0a9.33,9.33,0,0,0,3.34-.62h0a1.87,1.87,0,0,1,.66-.11,1.81,1.81,0,0,1,1.14.37h0a2.75,2.75,0,0,0,1.37.36,2.78,2.78,0,0,0,2.41-4.17h0a1.87,1.87,0,0,1-.36-1.12A1.84,1.84,0,0,1,18,12.6M13,9.28A3.69,3.69,0,1,1,9.28,5.57,3.69,3.69,0,0,1,13,9.28Z"/><g class="cls-2"><path d="M44.66,4.08a2.38,2.38,0,0,0-.89-1.22,2.43,2.43,0,0,0-1.49-.45A2.68,2.68,0,0,0,40,4l-3.8,6.68L32.42,4a2.73,2.73,0,0,0-2.31-1.57,2.52,2.52,0,0,0-1.54.49,2.27,2.27,0,0,0-.93,1.2L24.86,16H29.5l1.4-6.71L34,15a2.55,2.55,0,0,0,1,.84,3,3,0,0,0,1.32.33,2.35,2.35,0,0,0,2-1.17l3.06-5.67,1.43,6.76h4.61Z"/><rect x="43.57" y="7.17" width="13.43" height="4.2" transform="translate(40.94 59.54) rotate(-89.92)"/><path d="M69.09,2.52H64.87v7l-7.19-6.2a3.22,3.22,0,0,0-2.13-.8A1.82,1.82,0,0,0,54.18,3a1.65,1.65,0,0,0-.48,1.23v11.7h4.22v-7l7.18,6.2a3.6,3.6,0,0,0,2.3.9c1.12,0,1.68-.61,1.68-1.82Z"/><rect x="70.33" y="2.51" width="4.2" height="13.43"/><polygon points="101.76 2.56 98.14 7.63 94.2 2.56 89.19 2.54 95.96 11.52 95.96 15.98 100.18 15.99 100.19 11.54 106.75 2.58 101.76 2.56"/><polygon points="111.27 12.52 111.27 10.91 120.01 10.93 120.01 7.46 111.28 7.45 111.28 6.04 120.01 6.04 120.01 2.56 107.06 2.54 107.04 15.97 120.01 15.99 120.01 12.54 111.27 12.52"/><polygon points="80.15 12.52 80.15 10.91 88.89 10.93 88.89 7.46 80.16 7.45 80.16 6.04 88.89 6.04 88.89 2.56 75.94 2.54 75.92 15.97 88.89 15.99 88.89 12.54 80.15 12.52"/></g></g></g></svg>